<svg width="41" height="31" viewBox="0 0 41 31" fill="none" xmlns="http://www.w3.org/2000/svg">
<path d="M22.1479 2.0481C12.8932 2.0481 6.97023 16.1152 5.48944 21.4212C3.29974 29.3232 8.96806 30.7444 12.3996 30.4665C15.937 30.4541 24.986 30.4291 32.8833 30.4291C42.755 30.4291 41.2742 24.5062 40.287 21.4212C33.0067 0.0738603 23.8754 2.0481 22.1479 2.0481Z" fill="#FAEB65"/>
<path d="M31.5253 11.8668C27.4985 3.81291 21.8408 1.5659 17.1536 2.06618C8.97292 2.06618 3.73728 14.5008 2.42833 19.1911C0.492735 26.176 5.57498 27.1867 8.53661 27.1867C11.4982 27.1867 22.3074 27.1536 29.2882 27.1536C31.5252 27.079 35.2836 26.1246 34.2098 19.1911" stroke="#262626" stroke-width="3.5" stroke-linecap="round"/>
<path d="M24.8145 27.0792C25.2619 26.1844 25.1496 26.0603 25.4565 25.2895C27.702 19.6501 26.5326 17 24.2588 16.5635C22.2495 16.1777 18.325 15.8654 14.2237 16.5635C12.425 17.0316 11.4999 18.5 13.0014 21.5003" stroke="#262626" stroke-width="3.5" stroke-linecap="round"/>
</svg>
