<svg viewBox="0 0 18 18"
     fill="none"
     xmlns="http://www.w3.org/2000/svg">
  <path d="M10.2039 5C10.4248 5 10.6039 4.82091 10.6039 4.6C10.6039 4.37909 10.4248 4.2 10.2039 4.2C9.98299 4.2 9.80391 4.37909 9.80391 4.6C9.80391 4.82091 9.98299 5 10.2039 5Z"
        fill="currentColor" />
  <path d="M13.4039 8.2C13.6248 8.2 13.8039 8.02091 13.8039 7.8C13.8039 7.57909 13.6248 7.4 13.4039 7.4C13.183 7.4 13.0039 7.57909 13.0039 7.8C13.0039 8.02091 13.183 8.2 13.4039 8.2Z"
        fill="currentColor" />
  <path d="M6.20391 5.8C6.42482 5.8 6.60391 5.62091 6.60391 5.4C6.60391 5.17909 6.42482 5 6.20391 5C5.98299 5 5.80391 5.17909 5.80391 5.4C5.80391 5.62091 5.98299 5.8 6.20391 5.8Z"
        fill="currentColor" />
  <path d="M4.60391 9.8C4.82482 9.8 5.00391 9.62091 5.00391 9.4C5.00391 9.17909 4.82482 9 4.60391 9C4.38299 9 4.20391 9.17909 4.20391 9.4C4.20391 9.62091 4.38299 9.8 4.60391 9.8Z"
        fill="currentColor" />
  <path d="M10.2039 5C10.4248 5 10.6039 4.82091 10.6039 4.6C10.6039 4.37909 10.4248 4.2 10.2039 4.2C9.98299 4.2 9.80391 4.37909 9.80391 4.6C9.80391 4.82091 9.98299 5 10.2039 5Z"
        stroke="currentColor"
        stroke-width="1.5"
        stroke-linecap="round"
        stroke-linejoin="round" />
  <path d="M13.4039 8.2C13.6248 8.2 13.8039 8.02091 13.8039 7.8C13.8039 7.57909 13.6248 7.4 13.4039 7.4C13.183 7.4 13.0039 7.57909 13.0039 7.8C13.0039 8.02091 13.183 8.2 13.4039 8.2Z"
        stroke="currentColor"
        stroke-width="1.5"
        stroke-linecap="round"
        stroke-linejoin="round" />
  <path d="M6.20391 5.8C6.42482 5.8 6.60391 5.62091 6.60391 5.4C6.60391 5.17909 6.42482 5 6.20391 5C5.98299 5 5.80391 5.17909 5.80391 5.4C5.80391 5.62091 5.98299 5.8 6.20391 5.8Z"
        stroke="currentColor"
        stroke-width="1.5"
        stroke-linecap="round"
        stroke-linejoin="round" />
  <path d="M4.60391 9.8C4.82482 9.8 5.00391 9.62091 5.00391 9.4C5.00391 9.17909 4.82482 9 4.60391 9C4.38299 9 4.20391 9.17909 4.20391 9.4C4.20391 9.62091 4.38299 9.8 4.60391 9.8Z"
        stroke="currentColor"
        stroke-width="1.5"
        stroke-linecap="round"
        stroke-linejoin="round" />
  <path d="M9.00391 1C4.60391 1 1.00391 4.6 1.00391 9C1.00391 13.4 4.60391 17 9.00391 17C9.74471 17 10.3223 16.4032 10.3223 15.6496C10.3223 15.3 10.1783 14.9816 9.97271 14.7496C9.74071 14.5184 9.62231 14.228 9.62231 13.8496C9.61927 13.6735 9.65172 13.4986 9.7177 13.3354C9.78369 13.1721 9.88187 13.0238 10.0064 12.8993C10.1309 12.7748 10.2792 12.6766 10.4425 12.6106C10.6058 12.5446 10.7806 12.5122 10.9567 12.5152H12.5535C14.9943 12.5152 16.9975 10.5128 16.9975 8.072C16.9759 4.2096 13.3727 1 9.00391 1Z"
        stroke="currentColor"
        stroke-width="1.5"
        stroke-linecap="round"
        stroke-linejoin="round" />
</svg>