<svg viewBox="0 0 18 18" fill="none" xmlns="http://www.w3.org/2000/svg">
<path d="M16.5451 8.5008L9.41087 15.635C8.53688 16.509 7.35149 17 6.11547 17C4.87946 17 3.69407 16.509 2.82008 15.635C1.94608 14.761 1.45508 13.5756 1.45508 12.3396C1.45508 11.1036 1.94608 9.9182 2.82008 9.04421L9.95428 1.91C10.5369 1.32734 11.3272 1 12.1512 1C12.9752 1 13.7655 1.32734 14.3481 1.91C14.9308 2.49266 15.2581 3.28292 15.2581 4.10693C15.2581 4.93094 14.9308 5.7212 14.3481 6.30386L7.20618 13.4381C6.91485 13.7294 6.51972 13.8931 6.10771 13.8931C5.69571 13.8931 5.30058 13.7294 5.00925 13.4381C4.71791 13.1467 4.55425 12.7516 4.55425 12.3396C4.55425 11.9276 4.71791 11.5325 5.00925 11.2411L11.6 4.6581" stroke="currentColor" stroke-width="1.5" stroke-linecap="round" stroke-linejoin="round"/>
</svg>
