<svg viewBox="0 0 18 16"
     fill="none"
     xmlns="http://www.w3.org/2000/svg">
  <path d="M12.6364 14.5455V13.091C12.6364 12.3194 12.3299 11.5795 11.7843 11.0339C11.2388 10.4884 10.4988 10.1819 9.72727 10.1819H3.90909C3.13755 10.1819 2.39761 10.4884 1.85205 11.0339C1.30649 11.5795 1 12.3194 1 13.091V14.5455M17 14.5455V13.091C16.9995 12.4464 16.785 11.8202 16.3901 11.3108C15.9952 10.8014 15.4423 10.4375 14.8182 10.2764M11.9091 1.54914C12.5348 1.70935 13.0895 2.07328 13.4856 2.58354C13.8816 3.0938 14.0966 3.72138 14.0966 4.36732C14.0966 5.01326 13.8816 5.64083 13.4856 6.15109C13.0895 6.66135 12.5348 7.02528 11.9091 7.1855M9.72727 4.36368C9.72727 5.97033 8.42483 7.27277 6.81818 7.27277C5.21154 7.27277 3.90909 5.97033 3.90909 4.36368C3.90909 2.75703 5.21154 1.45459 6.81818 1.45459C8.42483 1.45459 9.72727 2.75703 9.72727 4.36368Z"
        stroke="currentColor"
        stroke-width="1.5"
        stroke-linecap="round"
        stroke-linejoin="round" />
</svg>
