<svg viewBox="0 0 18 16"
     fill="none"
     xmlns="http://www.w3.org/2000/svg">
  <path d="M6.09445 11.6384L9.00184 14.5458M9.00184 14.5458L11.9092 11.6384M9.00184 14.5458L9.00184 8.0042M15.4562 12.4307C16.0882 11.9863 16.562 11.3522 16.8091 10.6202C17.0562 9.88829 17.0636 9.09666 16.8303 8.36022C16.5969 7.62379 16.135 6.98086 15.5115 6.52474C14.888 6.06863 14.1354 5.82305 13.3629 5.82365H12.4471C12.2285 4.9717 11.8195 4.18043 11.2508 3.50943C10.6821 2.83843 9.96865 2.30518 9.16408 1.94982C8.3595 1.59445 7.48479 1.42625 6.6058 1.45786C5.72681 1.48947 4.86645 1.72007 4.08948 2.13231C3.31251 2.54454 2.63918 3.12767 2.12018 3.83778C1.60119 4.5479 1.25005 5.3665 1.0932 6.23196C0.936354 7.09742 0.977887 7.98718 1.21467 8.83427C1.45146 9.68136 1.87732 10.4637 2.46021 11.1224"
        stroke="currentColor"
        stroke-width="1.5"
        stroke-linecap="round"
        stroke-linejoin="round" />
</svg>