<svg viewBox="0 0 30 30"
     fill="none"
     xmlns="http://www.w3.org/2000/svg">
  <path d="M11 16C11.5523 16 12 15.5523 12 15C12 14.4477 11.5523 14 11 14C10.4477 14 10 14.4477 10 15C10 15.5523 10.4477 16 11 16Z"
        fill="currentColor" />
  <path d="M11 9C11.5523 9 12 8.55228 12 8C12 7.44772 11.5523 7 11 7C10.4477 7 10 7.44772 10 8C10 8.55228 10.4477 9 11 9Z"
        fill="currentColor" />
  <path d="M11 23C11.5523 23 12 22.5523 12 22C12 21.4477 11.5523 21 11 21C10.4477 21 10 21.4477 10 22C10 22.5523 10.4477 23 11 23Z"
        fill="currentColor" />
  <path d="M19 16C19.5523 16 20 15.5523 20 15C20 14.4477 19.5523 14 19 14C18.4477 14 18 14.4477 18 15C18 15.5523 18.4477 16 19 16Z"
        fill="currentColor" />
  <path d="M19 9C19.5523 9 20 8.55228 20 8C20 7.44772 19.5523 7 19 7C18.4477 7 18 7.44772 18 8C18 8.55228 18.4477 9 19 9Z"
        fill="currentColor" />
  <path d="M19 23C19.5523 23 20 22.5523 20 22C20 21.4477 19.5523 21 19 21C18.4477 21 18 21.4477 18 22C18 22.5523 18.4477 23 19 23Z"
        fill="currentColor" />
  <path d="M11 16C11.5523 16 12 15.5523 12 15C12 14.4477 11.5523 14 11 14C10.4477 14 10 14.4477 10 15C10 15.5523 10.4477 16 11 16Z"
        stroke="currentColor"
        stroke-width="1.5"
        stroke-linecap="round"
        stroke-linejoin="round" />
  <path d="M11 9C11.5523 9 12 8.55228 12 8C12 7.44772 11.5523 7 11 7C10.4477 7 10 7.44772 10 8C10 8.55228 10.4477 9 11 9Z"
        stroke="currentColor"
        stroke-width="1.5"
        stroke-linecap="round"
        stroke-linejoin="round" />
  <path d="M11 23C11.5523 23 12 22.5523 12 22C12 21.4477 11.5523 21 11 21C10.4477 21 10 21.4477 10 22C10 22.5523 10.4477 23 11 23Z"
        stroke="currentColor"
        stroke-width="1.5"
        stroke-linecap="round"
        stroke-linejoin="round" />
  <path d="M19 16C19.5523 16 20 15.5523 20 15C20 14.4477 19.5523 14 19 14C18.4477 14 18 14.4477 18 15C18 15.5523 18.4477 16 19 16Z"
        stroke="currentColor"
        stroke-width="1.5"
        stroke-linecap="round"
        stroke-linejoin="round" />
  <path d="M19 9C19.5523 9 20 8.55228 20 8C20 7.44772 19.5523 7 19 7C18.4477 7 18 7.44772 18 8C18 8.55228 18.4477 9 19 9Z"
        stroke="currentColor"
        stroke-width="1.5"
        stroke-linecap="round"
        stroke-linejoin="round" />
  <path d="M19 23C19.5523 23 20 22.5523 20 22C20 21.4477 19.5523 21 19 21C18.4477 21 18 21.4477 18 22C18 22.5523 18.4477 23 19 23Z"
        stroke="currentColor"
        stroke-width="1.5"
        stroke-linecap="round"
        stroke-linejoin="round" />
</svg>