<svg viewBox="0 0 16 18"
     fill="none"
     xmlns="http://www.w3.org/2000/svg">
  <path d="M11.1996 2.6H12.7996C13.224 2.6 13.6309 2.76857 13.931 3.06863C14.231 3.36869 14.3996 3.77565 14.3996 4.2V15.4C14.3996 15.8243 14.231 16.2313 13.931 16.5314C13.6309 16.8314 13.224 17 12.7996 17H3.19961C2.77526 17 2.3683 16.8314 2.06824 16.5314C1.76818 16.2313 1.59961 15.8243 1.59961 15.4V4.2C1.59961 3.77565 1.76818 3.36869 2.06824 3.06863C2.3683 2.76857 2.77526 2.6 3.19961 2.6H4.79961M7.99961 8.2H11.1996M7.99961 12.2H11.1996M4.79961 8.2H4.80761M4.79961 12.2H4.80761M5.59961 1H10.3996C10.8414 1 11.1996 1.35817 11.1996 1.8V3.4C11.1996 3.84183 10.8414 4.2 10.3996 4.2H5.59961C5.15778 4.2 4.79961 3.84183 4.79961 3.4V1.8C4.79961 1.35817 5.15778 1 5.59961 1Z"
        stroke="currentColor"
        stroke-width="1.5"
        stroke-linecap="round"
        stroke-linejoin="round" />
</svg>