<svg viewBox="0 0 18 18"
     fill="none"
     xmlns="http://www.w3.org/2000/svg">
  <path d="M17 11.6667L14.2569 8.92356C13.9235 8.59027 13.4714 8.40305 13 8.40305C12.5286 8.40305 12.0765 8.59027 11.7431 8.92356L3.66667 17M2.77778 1H15.2222C16.2041 1 17 1.79594 17 2.77778V15.2222C17 16.2041 16.2041 17 15.2222 17H2.77778C1.79594 17 1 16.2041 1 15.2222V2.77778C1 1.79594 1.79594 1 2.77778 1ZM8.11111 6.33333C8.11111 7.31517 7.31517 8.11111 6.33333 8.11111C5.35149 8.11111 4.55556 7.31517 4.55556 6.33333C4.55556 5.35149 5.35149 4.55556 6.33333 4.55556C7.31517 4.55556 8.11111 5.35149 8.11111 6.33333Z"
        stroke="currentColor"
        stroke-width="1.5"
        stroke-linecap="round"
        stroke-linejoin="round" />
</svg>