<svg viewBox="0 0 18 18"
     fill="none"
     xmlns="http://www.w3.org/2000/svg">
  <path d="M7.38954 9.80535C7.7354 10.2677 8.17665 10.6503 8.68338 10.9272C9.1901 11.204 9.75043 11.3686 10.3264 11.4099C10.9023 11.4511 11.4804 11.368 12.0214 11.1662C12.5624 10.9644 13.0537 10.6486 13.4619 10.2402L15.8779 7.82419C16.6114 7.06473 17.0173 6.04757 17.0081 4.99176C16.999 3.93596 16.5755 2.926 15.8289 2.17941C15.0823 1.43282 14.0723 1.00933 13.0165 1.00015C11.9607 0.990978 10.9436 1.39685 10.1841 2.13036L8.7989 3.50751M10.6109 8.19465C10.2651 7.73227 9.82383 7.34969 9.31711 7.07284C8.81038 6.796 8.25005 6.63137 7.67411 6.59012C7.09817 6.54887 6.52009 6.63197 5.97909 6.83378C5.43809 7.03559 4.94682 7.35139 4.5386 7.75976L2.12255 10.1758C1.38904 10.9353 0.983165 11.9524 0.99234 13.0082C1.00151 14.064 1.425 15.074 2.1716 15.8206C2.91819 16.5672 3.92815 16.9907 4.98395 16.9998C6.03975 17.009 7.05692 16.6031 7.81637 15.8696L9.19352 14.4925"
        stroke="currentColor"
        stroke-width="1.5"
        stroke-linecap="round"
        stroke-linejoin="round" />
</svg>