<svg viewBox="0 0 16 16" fill="none" xmlns="http://www.w3.org/2000/svg">
<path fill-rule="evenodd" clip-rule="evenodd" d="M0 9C0 10.1046 0.895431 11 2 11H14C15.1046 11 16 10.1046 16 9V7C16 5.89543 15.1046 5 14 5L2 5C0.895431 5 0 5.89543 0 7L0 9ZM1.20956 8.71436C1.20956 9.26664 1.65728 9.71436 2.20956 9.71436H13.5878C14.1401 9.71436 14.5878 9.26664 14.5878 8.71436V7.28578C14.5878 6.7335 14.1401 6.28578 13.5878 6.28578L2.20956 6.28578C1.65727 6.28578 1.20956 6.7335 1.20956 7.28578V8.71436Z" fill="currentColor"/>
</svg>
