<svg viewBox="0 0 16 16" fill="none" xmlns="http://www.w3.org/2000/svg">
<path fill-rule="evenodd" clip-rule="evenodd" d="M7 0C5.89543 0 5 0.895431 5 2V14C5 15.1046 5.89543 16 7 16H9C10.1046 16 11 15.1046 11 14V2C11 0.895431 10.1046 0 9 0H7ZM7.28516 1.2101C6.73287 1.2101 6.28516 1.65781 6.28516 2.2101V13.5883C6.28516 14.1406 6.73287 14.5883 7.28516 14.5883H8.71373C9.26601 14.5883 9.71373 14.1406 9.71373 13.5883V2.2101C9.71373 1.65781 9.26601 1.2101 8.71373 1.2101H7.28516Z" fill="currentColor"/>
</svg>
