<svg viewBox="0 0 18 18" fill="none" xmlns="http://www.w3.org/2000/svg">
<path d="M9 1C7.93914 2.06087 7.34315 3.49971 7.34315 5C7.34315 6.50029 7.93914 7.93913 9 9C10.0609 10.0609 11.4997 10.6569 13 10.6569C14.5003 10.6569 15.9391 10.0609 17 9C17 10.5822 16.5308 12.129 15.6518 13.4446C14.7727 14.7602 13.5233 15.7855 12.0615 16.391C10.5997 16.9965 8.99113 17.155 7.43928 16.8463C5.88743 16.5376 4.46197 15.7757 3.34315 14.6569C2.22433 13.538 1.4624 12.1126 1.15372 10.5607C0.84504 9.00887 1.00347 7.40034 1.60897 5.93853C2.21447 4.47672 3.23985 3.22729 4.55544 2.34824C5.87103 1.46919 7.41775 1 9 1Z" stroke="currentColor" stroke-width="1.5" stroke-linecap="round" stroke-linejoin="round"/>
</svg>
