<svg viewBox="0 0 16 18" fill="none" xmlns="http://www.w3.org/2000/svg">
<path d="M9.38435 16.2027C9.24368 16.4452 9.04176 16.6465 8.79883 16.7864C8.55589 16.9263 8.28046 17 8.0001 17C7.71975 17 7.44432 16.9263 7.20138 16.7864C6.95845 16.6465 6.75653 16.4452 6.61586 16.2027M12.801 5.80085C12.801 4.52759 12.2952 3.30647 11.3948 2.40614C10.4945 1.5058 9.27337 1 8.0001 1C6.72684 1 5.50572 1.5058 4.60539 2.40614C3.70506 3.30647 3.19925 4.52759 3.19925 5.80085C3.19925 11.4018 0.798828 13.0021 0.798828 13.0021H15.2014C15.2014 13.0021 12.801 11.4018 12.801 5.80085Z" stroke="currentColor" stroke-width="1.5" stroke-linecap="round" stroke-linejoin="round"/>
</svg>
