<svg viewBox="0 0 18 18" fill="none" xmlns="http://www.w3.org/2000/svg">
<path d="M6.60702 8.99686L8.20653 10.597L11.4055 7.39673M2.48829 6.29263C2.37156 5.76661 2.38948 5.21961 2.5404 4.70236C2.69132 4.18512 2.97034 3.71436 3.3516 3.33375C3.73286 2.95314 4.20401 2.67499 4.72137 2.5251C5.23873 2.37521 5.78554 2.35842 6.31111 2.4763C6.60039 2.0237 6.99891 1.65124 7.46992 1.39323C7.94093 1.13523 8.46929 1 9.00629 1C9.54328 1 10.0716 1.13523 10.5427 1.39323C11.0137 1.65124 11.4122 2.0237 11.7015 2.4763C12.2278 2.35791 12.7756 2.37462 13.2938 2.52487C13.8119 2.67513 14.2837 2.95405 14.6652 3.3357C15.0467 3.71734 15.3255 4.18931 15.4757 4.70769C15.6259 5.22608 15.6426 5.77405 15.5243 6.30063C15.9767 6.59002 16.349 6.98869 16.6069 7.45989C16.8648 7.93109 17 8.45966 17 8.99686C17 9.53407 16.8648 10.0626 16.6069 10.5338C16.349 11.005 15.9767 11.4037 15.5243 11.6931C15.6421 12.2189 15.6253 12.7659 15.4755 13.2835C15.3257 13.801 15.0476 14.2724 14.6672 14.6538C14.2867 15.0352 13.8161 15.3143 13.2991 15.4653C12.7821 15.6163 12.2353 15.6342 11.7095 15.5174C11.4206 15.9718 11.0217 16.3458 10.5499 16.605C10.0781 16.8641 9.54854 17 9.01028 17C8.47203 17 7.94247 16.8641 7.47066 16.605C6.99884 16.3458 6.60002 15.9718 6.31111 15.5174C5.78554 15.6353 5.23873 15.6185 4.72137 15.4686C4.20401 15.3187 3.73286 15.0406 3.3516 14.66C2.97034 14.2794 2.69132 13.8086 2.5404 13.2914C2.38948 12.7741 2.37156 12.2271 2.48829 11.7011C2.0324 11.4125 1.65688 11.0132 1.39666 10.5404C1.13645 10.0676 1 9.5366 1 8.99686C1 8.45713 1.13645 7.92617 1.39666 7.45336C1.65688 6.98055 2.0324 6.58126 2.48829 6.29263Z" stroke="currentColor" stroke-width="1.5" stroke-linecap="round" stroke-linejoin="round"/>
</svg>
