<svg viewBox="0 0 18 16" fill="none" xmlns="http://www.w3.org/2000/svg">
<path d="M1.80217 9.2798L5.90928 5.17269C6.36015 4.72125 6.97185 4.46734 7.60988 4.46678H9.82387C10.2494 4.46678 10.6574 4.63581 10.9583 4.93668C11.2592 5.23755 11.4282 5.64562 11.4282 6.07112C11.4282 6.49661 11.2592 6.90468 10.9583 7.20556C10.6574 7.50643 10.2494 7.67546 9.82387 7.67546H7.81844M11.0271 7.12998L14.3722 3.20737C14.6306 2.92091 14.989 2.74439 15.3736 2.71412C15.7582 2.68386 16.1398 2.80215 16.4399 3.04466C16.7399 3.28717 16.9356 3.63546 16.9867 4.01787C17.0378 4.40028 16.9404 4.78772 16.7145 5.10049L13.3454 9.86538C13.1248 10.1779 12.8329 10.4333 12.494 10.6105C12.155 10.7876 11.7786 10.8815 11.3961 10.8841H7.28099C7.06929 10.884 6.85965 10.9257 6.66415 11.0069C6.46865 11.0882 6.29116 11.2073 6.14191 11.3574L5.01085 12.4885M1 8.47763L5.81302 13.2906" stroke="currentColor" stroke-width="1.5" stroke-linecap="round" stroke-linejoin="round"/>
</svg>
