<svg viewBox="0 0 18 18"
     fill="none"
     xmlns="http://www.w3.org/2000/svg">
  <path d="M14.95 5.68066C14.9108 5.93821 14.9972 6.19896 15.1812 6.38292L16.4353 7.63707C16.8112 8.013 17 8.5065 17 9C17 9.4935 16.812 9.9862 16.4353 10.3629L15.1468 11.6515C15.0602 11.738 14.9545 11.803 14.8383 11.8413C14.722 11.8797 14.5984 11.8903 14.4773 11.8722C14.1014 11.8162 13.8358 11.4883 13.7031 11.1324C13.5866 10.8179 13.3929 10.5377 13.1397 10.3176C12.8866 10.0976 12.5823 9.94467 12.2546 9.87301C11.927 9.80135 11.5866 9.81322 11.2647 9.90753C10.9429 10.0018 10.6499 10.1756 10.4127 10.4127C10.1756 10.6499 10.0018 10.9429 9.90753 11.2647C9.81322 11.5866 9.80135 11.927 9.87301 12.2546C9.94467 12.5823 10.0976 12.8866 10.3176 13.1397C10.5377 13.3929 10.8179 13.5866 11.1324 13.7031C11.4891 13.8358 11.8162 14.1006 11.8722 14.4773C11.8903 14.5984 11.8798 14.722 11.8414 14.8383C11.8031 14.9545 11.738 15.0602 11.6515 15.1468L10.3637 16.4345C10.1849 16.614 9.97233 16.7563 9.7383 16.8534C9.50426 16.9504 9.25336 17.0002 9 17C8.74682 17.0003 8.49607 16.9506 8.26217 16.8537C8.02827 16.7568 7.81584 16.6146 7.63707 16.4353L6.38292 15.1812C6.29227 15.0904 6.1816 15.0221 6.05977 14.9818C5.93795 14.9415 5.80838 14.9303 5.68146 14.9492C5.28714 15.0084 5.0096 15.3523 4.86563 15.7235C4.74495 16.0332 4.54896 16.308 4.29538 16.5229C4.0418 16.7379 3.73863 16.8862 3.4133 16.9545C3.08797 17.0228 2.75074 17.0089 2.43213 16.9141C2.11352 16.8193 1.82356 16.6466 1.58851 16.4115C1.35345 16.1764 1.1807 15.8865 1.08589 15.5679C0.99108 15.2493 0.977199 14.912 1.0455 14.5867C1.11381 14.2614 1.26214 13.9582 1.47708 13.7046C1.69203 13.451 1.9668 13.255 2.27655 13.1344C2.64767 12.9904 2.9916 12.7129 3.04999 12.3185C3.06896 12.1917 3.05793 12.0621 3.01779 11.9403C2.97764 11.8185 2.9095 11.7078 2.81884 11.6171L1.56469 10.3629C1.3854 10.1842 1.24322 9.97172 1.14631 9.73782C1.0494 9.50393 0.999679 9.25318 1 9C1 8.5065 1.18876 8.013 1.56469 7.63707L2.78524 6.41652C2.97721 6.22456 3.24995 6.13417 3.5187 6.17417C3.93061 6.23575 4.22016 6.59648 4.37692 6.982C4.50146 7.28734 4.69957 7.55714 4.95362 7.76737C5.20767 7.97761 5.50977 8.12175 5.83301 8.18696C6.15626 8.25217 6.49061 8.23643 6.8063 8.14113C7.12199 8.04584 7.40921 7.87395 7.64238 7.64078C7.87555 7.40761 8.04744 7.12039 8.14273 6.8047C8.23803 6.48901 8.25377 6.15466 8.18856 5.83141C8.12335 5.50817 7.97921 5.20607 7.76897 4.95202C7.55874 4.69797 7.28894 4.49986 6.9836 4.37533C6.59808 4.21856 6.23735 3.92901 6.17576 3.5171C6.13577 3.24835 6.22536 2.97641 6.41812 2.78364L7.63787 1.56389C7.81661 1.38484 8.02894 1.24286 8.2627 1.14609C8.49645 1.04933 8.74701 0.999679 9 1C9.4935 1 9.987 1.18876 10.3629 1.56469L11.6171 2.81884C11.801 3.0028 12.0618 3.08918 12.3185 3.05079C12.7129 2.9916 12.9904 2.64767 13.1344 2.27655C13.255 1.9668 13.451 1.69203 13.7046 1.47708C13.9582 1.26214 14.2614 1.11381 14.5867 1.0455C14.912 0.977199 15.2493 0.99108 15.5679 1.08589C15.8865 1.1807 16.1764 1.35345 16.4115 1.58851C16.6466 1.82356 16.8193 2.11352 16.9141 2.43213C17.0089 2.75074 17.0228 3.08797 16.9545 3.4133C16.8862 3.73863 16.7379 4.0418 16.5229 4.29538C16.308 4.54896 16.0332 4.74495 15.7235 4.86563C15.3523 5.0096 15.0084 5.28634 14.95 5.68066Z"
        stroke="currentColor"
        stroke-width="1.5"
        stroke-linecap="round"
        stroke-linejoin="round" />
</svg>