<svg viewBox="0 0 18 16" fill="none" xmlns="http://www.w3.org/2000/svg">
<path d="M15.4 5.6001C16.2837 5.6001 17 4.88375 17 4.0001V3.2001C17 2.31644 16.2837 1.6001 15.4 1.6001H2.6C1.71634 1.6001 1 2.31644 1 3.2001V4.0001C1 4.88375 1.71634 5.6001 2.6 5.6001M15.4 5.6001H2.6M15.4 5.6001V12.8001C15.4 13.2244 15.2314 13.6314 14.9314 13.9315C14.6313 14.2315 14.2243 14.4001 13.8 14.4001H12.2M2.6 5.6001V12.8001C2.6 13.2244 2.76857 13.6314 3.06863 13.9315C3.36869 14.2315 3.77565 14.4001 4.2 14.4001H5.8M9 8.8001V14.4001M9 8.8001L6.6 11.2001M9 8.8001L11.4 11.2001" stroke="currentColor" stroke-width="1.5" stroke-linecap="round" stroke-linejoin="round"/>
</svg>
