<svg viewBox="0 0 18 18"
     fill="none"
     xmlns="http://www.w3.org/2000/svg">
  <path d="M4.2 4.2H4.208M4.2 13.8H4.208M2.6 1H15.4C16.2837 1 17 1.71634 17 2.6V5.8C17 6.68366 16.2837 7.4 15.4 7.4H2.6C1.71634 7.4 1 6.68366 1 5.8V2.6C1 1.71634 1.71634 1 2.6 1ZM2.6 10.6H15.4C16.2837 10.6 17 11.3163 17 12.2V15.4C17 16.2837 16.2837 17 15.4 17H2.6C1.71634 17 1 16.2837 1 15.4V12.2C1 11.3163 1.71634 10.6 2.6 10.6Z"
        stroke="currentColor"
        stroke-width="1.5"
        stroke-linecap="round"
        stroke-linejoin="round" />
</svg>