<svg viewBox="0 0 16 16" fill="none" xmlns="http://www.w3.org/2000/svg">
<path fill-rule="evenodd" clip-rule="evenodd" d="M7 5C5.89543 5 5 5.89543 5 7V9C5 10.1046 5.89543 11 7 11H9C10.1046 11 11 10.1046 11 9V7C11 5.89543 10.1046 5 9 5H7ZM7.28571 6.28571C6.73343 6.28571 6.28571 6.73343 6.28571 7.28571V8.71429C6.28571 9.26657 6.73343 9.71429 7.28571 9.71429H8.71429C9.26657 9.71429 9.71429 9.26657 9.71429 8.71429V7.28571C9.71429 6.73343 9.26657 6.28571 8.71429 6.28571H7.28571Z" fill="currentColor"/>
</svg>
