<svg viewBox="0 0 16 16" fill="none" xmlns="http://www.w3.org/2000/svg">
<path fill-rule="evenodd" clip-rule="evenodd" d="M8 16C12.4183 16 16 12.4183 16 8C16 3.58172 12.4183 0 8 0C3.58172 0 0 3.58172 0 8C0 12.4183 3.58172 16 8 16ZM6.35347 5.64666C6.15822 5.45138 5.84164 5.45135 5.64636 5.6466C5.45109 5.84185 5.45106 6.15843 5.64631 6.35371L7.41404 8.12173L5.64642 9.88964C5.45117 10.0849 5.4512 10.4015 5.64648 10.5967C5.84175 10.792 6.15834 10.792 6.35358 10.5967L8.12109 8.82889L9.88861 10.5967C10.0839 10.792 10.4004 10.792 10.5957 10.5967C10.791 10.4015 10.791 10.0849 10.5958 9.88964L8.82814 8.12173L10.5959 6.35371C10.7911 6.15843 10.7911 5.84185 10.5958 5.6466C10.4005 5.45135 10.084 5.45138 9.88872 5.64666L8.12109 7.41456L6.35347 5.64666Z" fill="currentColor"/>
</svg>
