<svg viewBox="0 0 16 16" fill="none" xmlns="http://www.w3.org/2000/svg">
<path fill-rule="evenodd" clip-rule="evenodd" d="M8 16C12.4183 16 16 12.4183 16 8C16 3.58172 12.4183 0 8 0C3.58172 0 0 3.58172 0 8C0 12.4183 3.58172 16 8 16ZM11.5706 6.24249C11.3754 6.04723 11.0588 6.04723 10.8635 6.24249L7.66551 9.44048L6.06055 7.97461C5.86528 7.77935 5.5487 7.77935 5.35344 7.97461C5.15818 8.16987 5.15818 8.48645 5.35344 8.68172L7.32797 10.4851C7.52324 10.6804 7.83982 10.6804 8.03508 10.4851L11.5706 6.9496C11.7659 6.75433 11.7659 6.43775 11.5706 6.24249Z" fill="currentColor"/>
</svg>
