<svg viewBox="0 0 18 18" fill="none" xmlns="http://www.w3.org/2000/svg">
<path d="M9 1L7.31111 6.15556C7.22463 6.4233 7.07583 6.6667 6.87695 6.86574C6.67807 7.06477 6.43479 7.21376 6.16711 7.30044L1 9L6.15556 10.6889C6.4233 10.7754 6.6667 10.9242 6.86574 11.123C7.06477 11.3219 7.21376 11.5652 7.30044 11.8329L9 17L10.6889 11.8444C10.7754 11.5767 10.9242 11.3333 11.123 11.1343C11.3219 10.9352 11.5652 10.7862 11.8329 10.6996L17 9L11.8444 7.31111C11.5767 7.22463 11.3333 7.07583 11.1343 6.87695C10.9352 6.67807 10.7862 6.43479 10.6996 6.16711L9 1Z" stroke="currentColor" stroke-width="1.5" stroke-linecap="round" stroke-linejoin="round"/>
</svg>
