<svg viewBox="0 0 18 18" fill="none" xmlns="http://www.w3.org/2000/svg">
<path d="M1 4.55556V2.77778C1 2.30628 1.1873 1.8541 1.5207 1.5207C1.8541 1.1873 2.30628 1 2.77778 1H4.55556M13.4444 1H15.2222C15.6937 1 16.1459 1.1873 16.4793 1.5207C16.8127 1.8541 17 2.30628 17 2.77778V4.55556M17 13.4444V15.2222C17 15.6937 16.8127 16.1459 16.4793 16.4793C16.1459 16.8127 15.6937 17 15.2222 17H13.4444M4.55556 17H2.77778C2.30628 17 1.8541 16.8127 1.5207 16.4793C1.1873 16.1459 1 15.6937 1 15.2222V13.4444M5.44444 4.55556V7.51852M5.44444 7.51852H8.40741M5.44444 7.51852L6.58148 6.32964C7.0067 5.92098 7.52335 5.61976 8.08847 5.45106C8.65358 5.28236 9.25081 5.25105 9.83047 5.35973C10.4101 5.46842 10.9554 5.71396 11.4211 6.07592C11.8867 6.43788 12.2591 6.9058 12.5074 7.44075M12.8519 13.4444V10.4815M12.8519 10.4815H9.88889M12.8519 10.4815L11.7147 11.6704C11.2895 12.079 10.7728 12.3802 10.2077 12.549C9.6426 12.7177 9.04537 12.749 8.46571 12.6403C7.88606 12.5316 7.34073 12.2861 6.87512 11.9241C6.4095 11.5621 6.03706 11.0942 5.78877 10.5593" stroke="currentColor" stroke-width="1.5" stroke-linecap="round" stroke-linejoin="round"/>
</svg>
