<svg viewBox="0 0 18 18" fill="none" xmlns="http://www.w3.org/2000/svg">
<path d="M7.45041 7.4V6.6C7.45041 6.17565 7.61809 5.76869 7.91658 5.46863C8.21506 5.16857 8.61989 5 9.04201 5C9.46413 5 9.86895 5.16857 10.1674 5.46863C10.4659 5.76869 10.6336 6.17565 10.6336 6.6V7.4C10.6336 6.97565 10.8013 6.56869 11.0998 6.26863C11.3983 5.96857 11.8031 5.8 12.2252 5.8C12.6473 5.8 13.0522 5.96857 13.3506 6.26863C13.6491 6.56869 13.8168 6.97565 13.8168 7.4V8.2C13.8168 7.77565 13.9845 7.36869 14.283 7.06863C14.5815 6.76857 14.9863 6.6 15.4084 6.6C15.8305 6.6 16.2353 6.76857 16.5338 7.06863C16.8323 7.36869 17 7.77565 17 8.2V10.6C17 12.2974 16.3293 13.9253 15.1353 15.1255C13.9414 16.3257 12.3221 17 10.6336 17H9.04201C6.81377 17 5.46091 16.312 4.27517 15.128L1.41029 12.248C1.13649 11.9432 0.989781 11.5441 1.00055 11.1336C1.01133 10.723 1.17875 10.3323 1.46816 10.0424C1.75757 9.75246 2.1468 9.58553 2.55527 9.57616C2.96373 9.56678 3.36013 9.71567 3.6624 9.992L5.06301 11.4M7.45041 7V2.6C7.45041 2.17565 7.28272 1.76869 6.98424 1.46863C6.68576 1.16857 6.28093 1 5.85881 1C5.43669 1 5.03186 1.16857 4.73338 1.46863C4.4349 1.76869 4.26721 2.17565 4.26721 2.6V10.6" stroke="currentColor" stroke-width="1.5" stroke-linecap="round" stroke-linejoin="round"/>
</svg>
