<svg viewBox="0 0 18 18"
     fill="none"
     xmlns="http://www.w3.org/2000/svg">
  <path d="M2.77778 1C2.30628 1 1.8541 1.1873 1.5207 1.5207C1.1873 1.8541 1 2.30628 1 2.77778M15.2222 1C15.6937 1 16.1459 1.1873 16.4793 1.5207C16.8127 1.8541 17 2.30628 17 2.77778M17 15.2222C17 15.6937 16.8127 16.1459 16.4793 16.4793C16.1459 16.8127 15.6937 17 15.2222 17M2.77778 17C2.30628 17 1.8541 16.8127 1.5207 16.4793C1.1873 16.1459 1 15.6937 1 15.2222M6.33333 1H7.22222M6.33333 17H7.22222M10.7778 1H11.6667M10.7778 17H11.6667M1 6.33333V7.22222M17 6.33333V7.22222M1 10.7778V11.6667M17 10.7778V11.6667M4.55556 5.44444H11.6667M4.55556 9H13.4444M4.55556 12.5556H9.88889"
        stroke="currentColor"
        stroke-width="1.5"
        stroke-linecap="round"
        stroke-linejoin="round" />
</svg>