<svg viewBox="0 0 18 16"
     fill="none"
     xmlns="http://www.w3.org/2000/svg">
  <path d="M3.4 1.6001H4.2C4.83652 1.6001 5.44697 1.85295 5.89706 2.30304C6.34714 2.75313 6.6 3.36358 6.6 4.0001M6.6 4.0001C6.6 3.36358 6.85286 2.75313 7.30294 2.30304C7.75303 1.85295 8.36348 1.6001 9 1.6001H9.8M6.6 4.0001V12.0001M9.8 14.4001H9C8.36348 14.4001 7.75303 14.1472 7.30294 13.6972C6.85286 13.2471 6.6 12.6366 6.6 12.0001M6.6 12.0001C6.6 12.6366 6.34714 13.2471 5.89706 13.6972C5.44697 14.1472 4.83652 14.4001 4.2 14.4001H3.4M3.4 11.2001H2.6C2.17565 11.2001 1.76869 11.0315 1.46863 10.7315C1.16857 10.4314 1 10.0244 1 9.6001V6.4001C1 5.97575 1.16857 5.56879 1.46863 5.26873C1.76869 4.96867 2.17565 4.8001 2.6 4.8001H3.4M9.8 4.8001H15.4C15.8243 4.8001 16.2313 4.96867 16.5314 5.26873C16.8314 5.56879 17 5.97575 17 6.4001V9.6001C17 10.0244 16.8314 10.4314 16.5314 10.7315C16.2313 11.0315 15.8243 11.2001 15.4 11.2001H9.8"
        stroke="currentColor"
        stroke-width="1.5"
        stroke-linecap="round"
        stroke-linejoin="round" />
</svg>