<svg viewBox="0 0 16 18"
     fill="none"
     xmlns="http://www.w3.org/2000/svg">
  <path d="M0.800781 4.2H2.40078M2.40078 4.2H15.2008M2.40078 4.2L2.40078 15.4C2.40078 15.8243 2.56935 16.2313 2.86941 16.5314C3.16947 16.8314 3.57644 17 4.00078 17H12.0008C12.4251 17 12.8321 16.8314 13.1322 16.5314C13.4322 16.2313 13.6008 15.8243 13.6008 15.4V4.2M4.80078 4.2V2.6C4.80078 2.17565 4.96935 1.76869 5.26941 1.46863C5.56947 1.16857 5.97644 1 6.40078 1H9.60078C10.0251 1 10.4321 1.16857 10.7322 1.46863C11.0322 1.76869 11.2008 2.17565 11.2008 2.6V4.2M6.40078 8.2V13M9.60078 8.2V13"
        stroke="currentColor"
        stroke-width="1.5"
        stroke-linecap="round"
        stroke-linejoin="round" />
</svg>