<svg viewBox="0 0 18 16" fill="none" xmlns="http://www.w3.org/2000/svg">
<path d="M11.6696 10.666L9.0029 7.99934M9.0029 7.99934L6.33624 10.666M9.0029 7.99934L9.0029 13.9993M14.5962 12.2593C15.2465 11.9049 15.7601 11.3439 16.0562 10.6651C16.3522 9.98625 16.4137 9.22816 16.231 8.51046C16.0484 7.79277 15.6319 7.15635 15.0474 6.70164C14.4628 6.24693 13.7435 5.99983 13.0029 5.99934H12.1629C11.9611 5.21883 11.585 4.49423 11.0629 3.88C10.5407 3.26577 9.88613 2.7779 9.1483 2.45308C8.41047 2.12825 7.6086 1.97491 6.80298 2.00459C5.99736 2.03428 5.20895 2.24621 4.49702 2.62445C3.78509 3.00269 3.16818 3.53741 2.69265 4.18839C2.21712 4.83938 1.89536 5.5897 1.75156 6.38293C1.60775 7.17617 1.64564 7.99169 1.86238 8.76818C2.07912 9.54467 2.46906 10.2619 3.0029 10.866" stroke="currentColor" stroke-width="1.5" stroke-linecap="round" stroke-linejoin="round"/>
</svg>
